1.9Hzlow3min_grf.mot
version=1
nRows=25
nColumns 19
inDegrees=yes
endheader
time	1_ground_force_vx	1_ground_force_vy	1_ground_force_vz	1_ground_force_px	1_ground_force_py	1_ground_force_pz	1_ground_torque_x	1_ground_torque_y	1_ground_torque_z	2_ground_force_vx	2_ground_force_vy	2_ground_force_vz	2_ground_force_px	2_ground_force_py	2_ground_force_pz	2_ground_torque_x	2_ground_torque_y	2_ground_torque_z
            2.502500	          -35.186153	          855.140306	          -72.552380	           -0.282183	            0.006236	           -0.410334	           -0.044395	            1.078935	           -0.091540	          -41.375396	          750.549029	           77.874767	           -0.263168	            0.005481	           -0.683023	            0.073060	           -1.325306	           -0.137510
            2.503000	          -35.141497	          856.043321	          -72.961329	           -0.282191	            0.006235	           -0.410280	           -0.045515	            1.108738	           -0.094499	          -41.793531	          749.625236	           78.294021	           -0.263217	            0.005480	           -0.682818	            0.068732	           -1.232801	           -0.128759
            2.503500	          -35.049425	          856.403145	          -72.776586	           -0.282216	            0.006235	           -0.410290	           -0.043009	            1.050882	           -0.089303	          -42.076546	          750.176034	           78.483824	           -0.263247	            0.005481	           -0.682980	            0.068109	           -1.214297	           -0.127040
            2.504000	          -35.187063	          855.141879	          -72.919227	           -0.282341	            0.006237	           -0.410701	           -0.042818	            1.040600	           -0.088733	          -42.170201	          750.175361	           78.577720	           -0.263333	            0.005480	           -0.682910	            0.063596	           -1.131319	           -0.118501
            2.504500	          -35.187030	          854.961583	          -72.920000	           -0.282353	            0.006237	           -0.410733	           -0.042059	            1.021931	           -0.087161	          -41.798622	          751.096642	           78.815479	           -0.263358	            0.005481	           -0.683015	            0.067890	           -1.219951	           -0.128014
            2.505000	          -35.186757	          856.583022	          -72.683768	           -0.282283	            0.006237	           -0.410624	           -0.041835	            1.018433	           -0.086417	          -41.986665	          751.279878	           78.863151	           -0.263330	            0.005480	           -0.682978	            0.066482	           -1.189586	           -0.124873
            2.505500	          -35.048874	          857.123028	          -72.498367	           -0.282272	            0.006236	           -0.410558	           -0.039944	            0.976844	           -0.082625	          -41.988556	          751.831524	           79.099756	           -0.263271	            0.005481	           -0.683134	            0.070629	           -1.264654	           -0.133054
            2.506000	          -34.682390	          857.303788	          -72.590208	           -0.282272	            0.006237	           -0.410646	           -0.045627	            1.127837	           -0.095497	          -42.319649	          752.749598	           79.525541	           -0.263336	            0.005482	           -0.683369	            0.069862	           -1.242659	           -0.131283
            2.506500	          -34.544555	          857.483399	          -72.452221	           -0.282372	            0.006237	           -0.410668	           -0.042580	            1.056931	           -0.089304	          -42.274189	          753.118551	           79.386043	           -0.263223	            0.005482	           -0.683319	            0.068778	           -1.225281	           -0.129157
            2.507000	          -34.315257	          857.663543	          -72.406149	           -0.282280	            0.006237	           -0.410723	           -0.044013	            1.100050	           -0.092869	          -42.459615	          752.565559	           79.337231	           -0.263308	            0.005481	           -0.683114	            0.064169	           -1.137344	           -0.119902
            2.507500	          -34.407673	          858.565867	          -72.631348	           -0.282217	            0.006237	           -0.410612	           -0.041698	            1.040482	           -0.088021	          -43.073880	          754.035770	           79.577380	           -0.263380	            0.005482	           -0.683387	            0.061635	           -1.078953	           -0.113868
            2.508000	          -34.085749	          858.564160	          -72.219429	           -0.282357	            0.006237	           -0.410655	           -0.040652	            1.023968	           -0.086133	          -42.933845	          754.219186	           79.906481	           -0.263319	            0.005482	           -0.683322	            0.062786	           -1.102959	           -0.116854
            2.508500	          -34.131873	          859.465707	          -72.261318	           -0.282328	            0.006236	           -0.410452	           -0.041391	            1.042251	           -0.087629	          -42.560313	          754.588318	           80.048413	           -0.263274	            0.005482	           -0.683419	            0.064056	           -1.135696	           -0.120477
            2.509000	          -33.994169	          860.366380	          -72.120223	           -0.282138	            0.006236	           -0.410413	           -0.041245	            1.043876	           -0.087503	          -42.702115	          754.955423	           80.237499	           -0.263379	            0.005482	           -0.683390	            0.065908	           -1.165220	           -0.123841
            2.509500	          -33.809461	          859.282916	          -71.666749	           -0.282236	            0.006237	           -0.410629	           -0.040954	            1.040868	           -0.086812	          -42.798470	          755.691769	           80.240167	           -0.263475	            0.005482	           -0.683488	            0.065303	           -1.153056	           -0.122433
            2.510000	          -33.672839	          860.545952	          -71.936823	           -0.282291	            0.006236	           -0.410435	           -0.039616	            1.012428	           -0.084633	          -42.751598	          755.691771	           80.287083	           -0.263401	            0.005482	           -0.683413	            0.065215	           -1.152770	           -0.122474
            2.510500	          -33.350425	          859.101726	          -71.439384	           -0.282442	            0.006237	           -0.410671	           -0.040421	            1.041244	           -0.086586	          -43.033262	          755.873999	           80.522492	           -0.263399	            0.005481	           -0.683304	            0.062847	           -1.103894	           -0.117597
            2.511000	          -33.305215	          859.463310	          -71.667228	           -0.282338	            0.006237	           -0.410790	           -0.038096	            0.983105	           -0.081977	          -43.272852	          757.346568	           80.480928	           -0.263474	            0.005483	           -0.683701	            0.058454	           -1.023035	           -0.108715
            2.511500	          -33.121079	          859.642143	          -71.345930	           -0.282362	            0.006237	           -0.410654	           -0.038259	            0.992988	           -0.082413	          -43.180457	          757.715021	           80.529123	           -0.263534	            0.005482	           -0.683625	            0.058198	           -1.021232	           -0.108535
            2.512000	          -32.892343	          860.363840	          -71.480963	           -0.282241	            0.006237	           -0.410575	           -0.038983	            1.019671	           -0.084717	          -43.131508	          757.161870	           80.761780	           -0.263576	            0.005481	           -0.683488	            0.060477	           -1.061650	           -0.113240
            2.512500	          -32.937988	          861.805170	          -71.291242	           -0.282340	            0.006236	           -0.410368	           -0.037485	            0.980776	           -0.081133	          -42.996154	          758.634621	           81.048545	           -0.263505	            0.005483	           -0.683800	            0.064402	           -1.136316	           -0.121398
            2.513000	          -32.799566	          861.263054	          -70.972923	           -0.282361	            0.006236	           -0.410560	           -0.038447	            1.009564	           -0.083194	          -42.812098	          759.556107	           81.004815	           -0.263615	            0.005482	           -0.683808	            0.064455	           -1.143541	           -0.121956
            2.513500	          -32.569878	          861.802882	          -70.741882	           -0.282362	            0.006236	           -0.410430	           -0.038542	            1.019815	           -0.083712	          -42.901814	          758.450925	           81.000912	           -0.263760	            0.005481	           -0.683639	            0.064682	           -1.143495	           -0.122123
            2.514000	          -32.248767	          861.261981	          -70.699145	           -0.282311	            0.006237	           -0.410568	           -0.038278	            1.022283	           -0.083917	          -42.904554	          759.188157	           80.815828	           -0.263747	            0.005482	           -0.683744	            0.057529	           -1.017962	           -0.108362
            2.514500	          -31.973514	          861.441937	          -70.607350	           -0.282397	            0.006237	           -0.410640	           -0.038144	            1.027683	           -0.084233	          -43.045623	          759.370680	           81.145049	           -0.263791	            0.005481	           -0.683608	            0.056449	           -0.995822	           -0.106412
